<?xml version="1.0" encoding="utf-8"?>
<!-- Generator: Adobe Illustrator 19.0.0, SVG Export Plug-In . SVG Version: 6.00 Build 0)  -->
<svg version="1.1" xmlns="http://www.w3.org/2000/svg" xmlns:xlink="http://www.w3.org/1999/xlink" x="0px" y="0px"
	 viewBox="-899 481 120 120" style="enable-background:new -899 481 120 120;" xml:space="preserve">
<style type="text/css">
	.st0{fill:#E8FFFE;}
	.st1{fill:#CCF5F2;}
	.st2{opacity:0.96;fill:#02A299;}
	.st3{opacity:0.96;}
	.st4{fill:#E8FFFE;stroke:#CCF5F2;stroke-width:0.25;stroke-miterlimit:10;}
</style>
<g id="Layer_1">
	<g>
		<circle class="st0" cx="-839" cy="541" r="60"/>
		<circle class="st1" cx="-838" cy="542" r="43.5"/>
		<path class="st2" d="M-839,517c-13.8,0-25,11.2-25,25s11.2,25,25,25s25-11.2,25-25S-825.2,517-839,517z"/>
	</g>
</g>
<g id="Layer_2">
	<g id="XMLID_15_" class="st3">
		<path id="XMLID_7_" class="st4" d="M-824.5,547.3c-0.1-0.7-0.5-2-1.3-2.6c-0.8-0.6-1.4-0.7-2.1-0.6v-8.5c0,0,0,0,0,0c0,0,0,0,0,0
			v-2.6c0-1.7-1.3-3.1-3-3.2v-0.4c0-0.5-0.2-0.9-0.5-1.3c-0.3-0.3-0.8-0.5-1.3-0.5c-1,0-1.8,0.8-1.8,1.8v0.4h-3.4v-0.4
			c0-0.5-0.2-0.9-0.5-1.3c-0.3-0.3-0.8-0.5-1.3-0.5c-1,0-1.8,0.8-1.8,1.8v0.4h-3.4v-0.4c0-0.5-0.2-0.9-0.5-1.3
			c-0.3-0.3-0.8-0.5-1.3-0.5c-1,0-1.8,0.8-1.8,1.8v0.4c-1.7,0.1-3,1.5-3,3.2v2.6c0,0,0,0,0,0c0,0,0,0,0,0v12.8
			c0,1.4,1.1,2.5,2.5,2.5h13.1c0.4,2,1.3,3.9,2.6,5.3c0.3,0.3,0.7,0.4,1.1,0.4c0.4-0.1,0.7-0.3,0.9-0.7c0.2-0.5,0.4-1,0.5-1.4
			c0.1-0.3,0.4-0.5,0.7-0.5c0.2,0,0.3,0,0.4,0.1c0.1,0.1,0.2,0.2,0.3,0.4c0.1,0.4,0.3,0.9,0.5,1.4c0.2,0.4,0.5,0.6,0.9,0.7
			c0.1,0,0.1,0,0.2,0c0.3,0,0.7-0.1,0.9-0.4c1.1-1.2,1.9-2.7,2.3-4.3C-824.3,550.3-824.2,548.7-824.5,547.3z M-833.4,529.3
			c0-0.4,0.3-0.7,0.7-0.7c0.2,0,0.4,0.1,0.5,0.2c0.1,0.1,0.2,0.3,0.2,0.5v1.7c0,0.4-0.3,0.7-0.7,0.7c-0.4,0-0.7-0.3-0.7-0.7V529.3z
			 M-840.5,529.3c0-0.4,0.3-0.7,0.7-0.7c0.2,0,0.4,0.1,0.5,0.2c0.1,0.1,0.2,0.3,0.2,0.5v1.7c0,0.4-0.3,0.7-0.7,0.7
			c-0.4,0-0.7-0.3-0.7-0.7V529.3z M-847.5,529.3c0-0.4,0.3-0.7,0.7-0.7c0.2,0,0.4,0.1,0.5,0.2c0.1,0.1,0.2,0.3,0.2,0.5v1.7
			c0,0.4-0.3,0.7-0.7,0.7c-0.4,0-0.7-0.3-0.7-0.7V529.3z M-850.5,548.3v-12.2h1.8c0.3,0,0.6-0.3,0.6-0.6c0-0.3-0.3-0.6-0.6-0.6h-1.8
			v-2.1c0-1.1,0.8-2,1.9-2.1v0.1c0,1,0.8,1.8,1.8,1.8c1,0,1.8-0.8,1.8-1.8v-0.1h3.4v0.1c0,1,0.8,1.8,1.8,1.8c1,0,1.8-0.8,1.8-1.8
			v-0.1h3.4v0.1c0,1,0.8,1.8,1.8,1.8c1,0,1.8-0.8,1.8-1.8v-0.1c1.1,0.1,1.9,1,1.9,2.1v2.1h-15.2c-0.3,0-0.6,0.3-0.6,0.6
			c0,0.3,0.3,0.6,0.6,0.6h15.2v8.3c-0.4,0.1-0.8,0.3-1.3,0.3c-0.5,0-1-0.2-1.5-0.3c-0.9-0.3-1.9-0.6-3.1,0.3c-0.9,0.7-1.2,2-1.3,2.6
			c-0.1,0.7-0.2,1.6-0.1,2.4h-12.9C-849.9,549.7-850.5,549.1-850.5,548.3z M-827.9,555.4C-828,555.4-828,555.4-827.9,555.4
			C-828,555.4-828,555.3-827.9,555.4c-0.3-0.5-0.5-0.9-0.6-1.3c-0.1-0.4-0.4-0.7-0.7-0.9c-0.3-0.2-0.7-0.4-1.1-0.4
			c-0.8,0-1.5,0.5-1.8,1.3c-0.1,0.4-0.3,0.8-0.5,1.3c0,0,0,0,0,0c0,0,0,0,0,0c-1.2-1.4-2.1-3.2-2.4-5.2c-0.1-0.9-0.1-1.9,0-2.7
			c0.2-0.9,0.5-1.6,0.9-2c0.6-0.5,1.1-0.4,2-0.1c0.5,0.2,1.1,0.4,1.8,0.4h0c0.7,0,1.3-0.2,1.8-0.4c0.1,0,0.1,0,0.2-0.1c0,0,0,0,0,0
			c0,0,0,0,0,0c0.8-0.3,1.2-0.3,1.8,0.2c0.4,0.3,0.8,1.1,0.9,2C-825.1,550.1-826.1,553.3-827.9,555.4z"/>
		<path id="XMLID_4_" class="st4" d="M-833.7,537.2c-0.3-0.4-0.8-0.5-1.3-0.3c-2.9,1.3-5.2,5.7-6,7.4c-1-0.5-2.5-1.2-3.4-1.2
			c0,0-0.1,0-0.1,0c-0.7,0.1-1.3,0.6-1.3,1.3c-0.1,0.7,0.4,1.4,1.1,1.6c1.7,0.5,3.3,2,4.1,2.8c0.2,0.2,0.5,0.3,0.8,0.3
			c0.1,0,0.2,0,0.3,0c0.4-0.1,0.7-0.4,0.8-0.7c1.1-3.6,4-8.1,5.2-9.9C-833.4,538.2-833.4,537.6-833.7,537.2z M-839.9,548.1
			c-0.9-0.9-2.6-2.6-4.6-3.1c-0.3-0.1-0.3-0.3-0.2-0.4c0-0.1,0.1-0.3,0.3-0.3c0,0,0,0,0,0c0,0,0,0,0,0c0.6,0,1.8,0.5,3.1,1.2
			c0.2,0.1,0.5,0.1,0.7,0.1c0.2-0.1,0.4-0.2,0.5-0.5c0.4-1,2.6-5.8,5.4-7.1C-836.2,540.2-838.8,544.5-839.9,548.1z"/>
		<path id="XMLID_3_" class="st4" d="M-846.5,535L-846.5,535c-0.3,0-0.6,0.3-0.6,0.6c0,0.3,0.3,0.6,0.6,0.6c0.3,0,0.6-0.3,0.6-0.6
			C-845.9,535.3-846.2,535-846.5,535z"/>
		<path id="XMLID_2_" class="st4" d="M-827.6,546.5c-0.3,0.1-0.4,0.4-0.3,0.7c0,0,0.7,1.8,0,3.4c-0.1,0.3,0,0.6,0.3,0.7
			c0.1,0,0.1,0,0.2,0c0.2,0,0.4-0.1,0.5-0.4c0.8-2.1,0-4.2,0-4.3C-827,546.5-827.3,546.4-827.6,546.5z"/>
	</g>
</g>
</svg>
