<?xml version="1.0" encoding="utf-8"?>
<!-- Generator: Adobe Illustrator 19.0.0, SVG Export Plug-In . SVG Version: 6.00 Build 0)  -->
<svg version="1.1" id="Capa_1" xmlns="http://www.w3.org/2000/svg" xmlns:xlink="http://www.w3.org/1999/xlink" x="0px" y="0px"
	 viewBox="-703 285 512 512" style="enable-background:new -703 285 512 512;" xml:space="preserve">
<style type="text/css">
	.st0{fill:#FFFFFF;}
</style>
<g>
	<path class="st0" d="M-252.5,638.6l-41.4-71c7.2-61.9-18.2-123.4-68.8-161.5v-69.9c4.4,3.6,7.9,10.7,16.9,10.7
		c13.2,0,20.1-16.1,10.6-25.6l-31.9-31.9c-5.9-5.9-15.4-5.8-21.2,0l-31.9,31.9c-5.9,5.9-5.9,15.4,0,21.2c5.9,5.9,15.4,5.9,21.2,0
		l6.3-6.3v51.7c-23.4-11.2-49.2-17.2-75.7-17.2c-154.5,0-234.8,187.5-125.3,298.9v111.6c0,8.3,6.7,15,14.9,15
		c135,0.8,147.6,0.8,147.8,0.8c8.3,0,15-6.7,15-15v-22.1h59.4c21.5,0,39-17.5,39-39v-50.8h47C-254.6,670.2-244.4,652.7-252.5,638.6
		L-252.5,638.6z M-332.7,640.2c-8.3,0-15,6.7-15,15v65.8c0,4.9-4,9-9,9H-431c-8.3,0-15,6.7-15,15v22l-117.7-0.7v-72.2
		c5.5,3.5,11.1,6.8,17,9.7c7.4,3.7,16.4,0.7,20.1-6.7s0.7-16.4-6.7-20.1c-49.8-24.8-80.8-74.8-80.8-130.5
		c0-113.5,124.7-183.3,221.4-124.5v126.4c0,41.4-33.6,75-75,75s-75-33.6-75-75c0-51.9,51.7-88.1,100.3-70.6
		c7.8,2.8,16.4-1.3,19.2-9.1c2.8-7.8-1.3-16.4-9.1-19.2c-68.1-24.5-140.4,26.3-140.4,98.9c0,57.9,47.1,105,105,105
		c57.9,0,105-47.1,105-105V446.1c31.1,32.7,45.1,76.6,38.4,122.4c-0.5,3.4,0.2,6.8,1.9,9.7l36.1,61.9L-332.7,640.2L-332.7,640.2z"/>
	<path class="st0" d="M-467.7,503.4c-24.8,0-45,20.2-45,45s20.2,45,45,45s45-20.2,45-45S-442.9,503.4-467.7,503.4z M-467.7,563.4
		c-8.3,0-15-6.7-15-15c0-8.3,6.7-15,15-15s15,6.7,15,15C-452.7,556.7-459.5,563.4-467.7,563.4z"/>
</g>
</svg>
