<?xml version="1.0" encoding="utf-8"?>
<!-- Generator: Adobe Illustrator 19.0.0, SVG Export Plug-In . SVG Version: 6.00 Build 0)  -->
<svg version="1.1" id="Layer_1" xmlns="http://www.w3.org/2000/svg" xmlns:xlink="http://www.w3.org/1999/xlink" x="0px" y="0px"
	 viewBox="-92 94 120 120" style="enable-background:new -92 94 120 120;" xml:space="preserve">
<style type="text/css">
	.st0{fill:#E8FFFE;}
	.st1{fill:#CCF5F2;}
	.st2{fill:#02A299;}
</style>
<g>
	<circle class="st0" cx="-32" cy="154" r="60"/>
	<circle class="st1" cx="-31" cy="155" r="43.5"/>
	<path class="st2" d="M-31,130c-13.8,0-25,11.2-25,25c0,13.8,11.2,25,25,25s25-11.2,25-25C-6,141.2-17.2,130-31,130z M-31,141.1
		c2.3,0,4.3,1.8,4.3,4.2c0,2.3-1.8,4.3-4.2,4.3c0,0-0.1,0-0.1,0c-2.3,0-4.2-2-4.2-4.3C-35.1,143-33.3,141.1-31,141.1z M-25.4,166.7
		c0,0.7-0.5,1.2-1.2,1.2h-8.9c-0.7,0-1.2-0.5-1.2-1.2v-2.4c0-0.7,0.5-1.2,1.2-1.2h1.2v-6.5h-1.2c-0.7,0-1.2-0.5-1.2-1.2V153
		c0-0.7,0.5-1.2,1.2-1.2h6.5c0.7,0,1.2,0.5,1.2,1.2v10.1h1.2c0.7,0,1.2,0.5,1.2,1.2L-25.4,166.7L-25.4,166.7z"/>
</g>
</svg>
