<?xml version="1.0" encoding="utf-8"?>
<!-- Generator: Adobe Illustrator 19.0.0, SVG Export Plug-In . SVG Version: 6.00 Build 0)  -->
<svg version="1.1" id="Layer_1" xmlns="http://www.w3.org/2000/svg" xmlns:xlink="http://www.w3.org/1999/xlink" x="0px" y="0px"
	 viewBox="0 0 260 81" style="enable-background:new 0 0 260 81;" xml:space="preserve">
<style type="text/css">
	.st0{fill:#13998D;}
</style>
<g id="XMLID_9_" transform="translate(0 0)">
	<path id="elo" class="st0" d="M215.2,43.9c0-3.6-0.8-6.5-2.3-8.6c-1.5-2.1-3.7-3.2-6.4-3.2c-3.3,0-5.8,1.5-7.5,4.4l0,15.5
		c1.6,3,4.2,4.4,7.6,4.4c2.6,0,4.7-1,6.3-3.1C214.4,51.1,215.2,48,215.2,43.9L215.2,43.9z M220.7,44.5c0,4.9-1.1,8.9-3.4,11.9
		s-5.3,4.5-9.1,4.5c-3.9,0-7-1.3-9.2-3.8l0,15.6l-5.5,0l0.1-44.8l5,0l0.3,3.6c2.3-2.8,5.4-4.2,9.4-4.2c3.9,0,6.9,1.5,9.2,4.4
		c2.2,2.9,3.4,7,3.4,12.2C220.7,44,220.7,44.5,220.7,44.5z M249.4,44c0-3.6-0.8-6.5-2.3-8.6c-1.5-2.1-3.7-3.2-6.4-3.2
		c-3.3,0-5.8,1.5-7.5,4.4l0,15.5c1.6,3,4.2,4.4,7.6,4.4c2.6,0,4.7-1,6.3-3.1C248.6,51.2,249.4,48.1,249.4,44z M255,44.6
		c0,4.9-1.1,8.9-3.4,11.9c-2.3,3-5.3,4.5-9.1,4.5c-3.9,0-7-1.3-9.2-3.8l0,15.6l-5.5,0l0.1-44.8l5,0l0.3,3.6c2.3-2.8,5.4-4.2,9.4-4.2
		c3.9,0,6.9,1.5,9.2,4.4c2.2,2.9,3.4,7,3.4,12.2L255,44.6L255,44.6z M46.8,28.8c1.6,2.1,2.4,5.3,2.4,9.5v1.9c0,4.2-0.8,7.4-2.4,9.5
		c-1.6,2.1-3.9,3.2-6.9,3.2h-3.6V25.6h3.5C42.8,25.6,45.2,26.7,46.8,28.8"/>
	<path id="XMLID_10_" class="st0" d="M59.9,40.2c0,4-0.8,7.6-2.5,10.7c-1.7,3.2-4,5.6-7.1,7.4c-3,1.8-6.5,2.7-10.2,2.7H25.7V17.5h14
		c3.8,0,7.3,0.9,10.3,2.6c3.1,1.7,5.5,4.2,7.2,7.4c1.7,3.2,2.6,6.7,2.6,10.7L59.9,40.2L59.9,40.2z M74.2,15.5
		C72.5,8.5,66.9,2.7,59.9,0.9c-5-1.3-9.8,0.8-13.9,3.8c-0.5,0.4-1.1,0.6-1.6,0.9l4.4,2.8c1.2,0.7,1.5,2.3,0.7,3.5
		c-0.7,1.1-2.2,1.5-3.4,0.8L30.4,2.5C27.2,0.8,23.6,0,20,0.9C13,2.7,7.4,8.5,5.7,15.6C4.1,22.1,5.6,28.2,9,32.8
		c3.6,4.9,5.1,10.7,5.7,16.8c0.7,7.4,1.6,14.7,3.3,21.9l1.2,5.3c0.5,2.2,2.4,3.7,4.6,3.7c2.2,0,4.1-1.5,4.6-3.6l5.4-4.1
		c0.7-2.9,3.3-4.9,6.2-4.9c2.9,0,5.5,2,6.2,4.9l5.4,4.1c0.5,2.1,2.4,3.6,4.6,3.6c2.2,0,4.1-1.5,4.6-3.7l1.2-5.3
		c1.7-7.2,2.6-14.5,3.3-21.9c0.6-6,2-11.8,5.7-16.8C74.3,28.2,75.8,22.1,74.2,15.5L74.2,15.5z"/>
</g>
<g id="XMLID_2_" transform="translate(-63 -308.02)">
	<path id="f" class="st0" d="M149.4,342.9c-2.9,0-4.7,2-5.2,5.9h10.1V348c0-1.6-0.4-2.9-1.2-3.8C152.2,343.3,151,342.9,149.4,342.9
		L149.4,342.9z M150.5,368.7c-4.9,0-9-1.5-12-4.4s-4.6-6.8-4.6-11.6v-0.8c0-3.3,0.6-6.2,1.8-8.8c1.2-2.5,3-4.5,5.4-5.9
		c2.3-1.4,5.1-2.1,8.3-2.1c4.5,0,8.1,1.4,10.7,4.2s3.9,6.8,3.9,11.8v3.9h-20c0.4,1.8,1.1,3.2,2.4,4.3c1.2,1,2.8,1.6,4.7,1.6
		c3.2,0,5.7-1.1,7.5-3.3l4.6,5.4c-1.3,1.7-3,3.1-5.3,4.1C155.6,368.1,153.2,368.7,150.5,368.7L150.5,368.7z M177.4,335.7l0.3,3.8
		c2.2-2.9,5.3-4.4,9.2-4.4c3.4,0,5.9,1,7.5,3s2.5,5,2.6,9.1v20.8H187v-20.4c0-1.6-0.3-2.8-1-3.6c-0.7-0.8-1.8-1.1-3.6-1.1
		c-2,0-3.4,0.8-4.4,2.3v22.8h-10v-32.3H177.4 M214.3,327.7v8h5.3v7h-5.3v14.8c0,1.2,0.2,2.1,0.7,2.5c0.4,0.5,1.3,0.7,2.6,0.7
		c1,0,1.8-0.1,2.5-0.2v7.2c-1.8,0.6-3.7,0.9-5.7,0.9c-3.5,0-6-0.8-7.7-2.5c-1.6-1.6-2.5-4.1-2.5-7.4v-16.1h-4.1v-7h4.1v-8
		L214.3,327.7 M235.7,363.8c1.7,0,3.4-0.4,4.9-1.3c1.6-0.9,2.7-2.1,3.4-3.5v-6.6h-4.3c-6.8,0-10.1,2-10.1,5.9c0,1.7,0.6,3.1,1.7,4.1
		C232.4,363.4,233.9,363.8,235.7,363.8L235.7,363.8z M244.8,368.1c-0.3-0.6-0.6-1.8-0.8-3.4c-2.6,2.7-5.6,4-9.2,4
		c-3.2,0-5.8-0.9-7.8-2.7c-2-1.8-3.1-4.1-3.1-6.9c0-3.4,1.3-6,3.8-7.8c2.6-1.9,6.1-2.8,10.8-2.8h5.4v-2.5c0-1.9-0.6-3.5-1.7-4.6
		s-2.9-1.7-5.1-1.7c-2,0-3.6,0.5-4.9,1.5c-1.3,1-2,2.2-2,3.6h-5.5c0-1.6,0.6-3.2,1.7-4.7c1.1-1.5,2.7-2.7,4.7-3.6
		c2-0.9,4.1-1.3,6.5-1.3c3.7,0,6.6,0.9,8.7,2.8c2.1,1.9,3.2,4.4,3.3,7.7v14.9c0,3,0.4,5.3,1.1,7.1v0.5H244.8z"/>
</g>
</svg>
