<?xml version="1.0" encoding="utf-8"?>
<!-- Generator: Adobe Illustrator 19.0.0, SVG Export Plug-In . SVG Version: 6.00 Build 0)  -->
<svg version="1.1" id="Capa_1" xmlns="http://www.w3.org/2000/svg" xmlns:xlink="http://www.w3.org/1999/xlink" x="0px" y="0px"
	 viewBox="-850 432.9 217.1 217.1" style="enable-background:new -850 432.9 217.1 217.1;" xml:space="preserve">
<style type="text/css">
	.st0{fill:#FFFFFF;}
</style>
<g>
	<path class="st0" d="M-741.4,432.9c-46.1,0-83.7,37.5-83.7,83.7c0,33,13.8,66.3,39.9,96.4c19.5,22.5,38.8,35.2,39.6,35.8
		c1.2,0.8,2.7,1.2,4.1,1.2c1.4,0,2.9-0.4,4.1-1.2c0.8-0.5,20.1-13.3,39.6-35.8c26.1-30.1,39.9-63.5,39.9-96.4
		C-657.8,470.4-695.3,432.9-741.4,432.9z M-741.4,633.3c-15.4-11.5-68.7-55.6-68.7-116.7c0-37.9,30.8-68.7,68.7-68.7
		c37.9,0,68.7,30.8,68.7,68.7C-672.8,577.7-726.1,621.8-741.4,633.3z"/>
	<path class="st0" d="M-741.4,483.3c-18.3,0-33.2,14.9-33.2,33.2c0,18.3,14.9,33.2,33.2,33.2s33.2-14.9,33.2-33.2
		C-708.2,498.2-723.1,483.3-741.4,483.3z M-741.4,534.8c-10,0-18.2-8.2-18.2-18.2c0-10,8.2-18.2,18.2-18.2c10,0,18.2,8.2,18.2,18.2
		C-723.2,526.6-731.4,534.8-741.4,534.8z"/>
</g>
</svg>
