<?xml version="1.0" encoding="utf-8"?>
<!-- Generator: Adobe Illustrator 19.0.0, SVG Export Plug-In . SVG Version: 6.00 Build 0)  -->
<svg version="1.1" id="Layer_1" xmlns="http://www.w3.org/2000/svg" xmlns:xlink="http://www.w3.org/1999/xlink" x="0px" y="0px"
	 viewBox="-703 285 512 512" style="enable-background:new -703 285 512 512;" xml:space="preserve">
<style type="text/css">
	.st0{fill:#FFFFFF;}
</style>
<g id="XMLID_301_">
	<g id="XMLID_1035_">
		<path id="XMLID_1289_" class="st0" d="M-201,325h-44v-10c0-16.5-13.5-30-30-30s-30,13.5-30,30v10h-112v-10c0-16.5-13.5-30-30-30
			s-30,13.5-30,30v10h-112v-10c0-16.5-13.5-30-30-30s-30,13.5-30,30v10h-44c-5.5,0-10,4.5-10,10v452c0,5.5,4.5,10,10,10h201
			c5.5,0,10-4.5,10-10s-4.5-10-10-10h-68V677h103v64.3c0,5.5,4.5,10,10,10s10-4.5,10-10V677h103v100h-68c-5.5,0-10,4.5-10,10
			s4.5,10,10,10h201c5.5,0,10-4.5,10-10V335C-191,329.5-195.5,325-201,325z M-683,557h103v100h-103V557z M-683,537v-99.5h103V537
			H-683z M-560,437.5h103V537h-103V437.5z M-437,437.5h103V537h-103V437.5z M-314,437.5h103V537h-103V437.5z M-211,557v100h-103V557
			H-211z M-285,315c0-5.5,4.5-10,10-10s10,4.5,10,10v40c0,5.5-4.5,10-10,10s-10-4.5-10-10V315z M-457,315c0-5.5,4.5-10,10-10
			s10,4.5,10,10v40c0,5.5-4.5,10-10,10s-10-4.5-10-10V315z M-629,315c0-5.5,4.5-10,10-10s10,4.5,10,10v40c0,5.5-4.5,10-10,10
			s-10-4.5-10-10V315z M-649,345v10c0,16.5,13.5,30,30,30s30-13.5,30-30v-10h112v10c0,16.5,13.5,30,30,30s30-13.5,30-30v-10h112v10
			c0,16.5,13.5,30,30,30s30-13.5,30-30v-10h34v72.5h-472V345H-649z M-580,777h-103V677h103V777z M-560,657V557h103v100H-560z
			 M-437,657V557h103v100H-437z M-314,777V677h103v100H-314z"/>
		<path id="XMLID_1385_" class="st0" d="M-447,777c-2.6,0-5.2,1.1-7.1,2.9s-2.9,4.4-2.9,7.1s1.1,5.2,2.9,7.1s4.4,2.9,7.1,2.9
			s5.2-1.1,7.1-2.9s2.9-4.4,2.9-7.1s-1.1-5.2-2.9-7.1S-444.4,777-447,777z"/>
		<path id="XMLID_1386_" class="st0" d="M-607.8,470c-3.9-3.9-10.2-3.9-14.1,0l-13.3,13.3l-5.8-5.8c-3.9-3.9-10.2-3.9-14.1,0
			c-3.9,3.9-3.9,10.2,0,14.1l12.9,12.9c2,2,4.5,2.9,7.1,2.9c2.6,0,5.1-1,7.1-2.9l20.4-20.4C-603.9,480.3-603.9,473.9-607.8,470z"/>
		<path id="XMLID_1387_" class="st0" d="M-361.8,470c-3.9-3.9-10.2-3.9-14.1,0l-13.3,13.3l-5.8-5.8c-3.9-3.9-10.2-3.9-14.1,0
			c-3.9,3.9-3.9,10.2,0,14.1l12.9,12.9c2,2,4.5,2.9,7.1,2.9s5.1-1,7.1-2.9l20.4-20.4C-357.9,480.3-357.9,473.9-361.8,470L-361.8,470
			z"/>
		<path id="XMLID_1391_" class="st0" d="M-484.8,589.5c-3.9-3.9-10.2-3.9-14.1,0l-13.3,13.3l-5.8-5.8c-3.9-3.9-10.2-3.9-14.1,0
			s-3.9,10.2,0,14.1l12.9,12.9c2,2,4.5,2.9,7.1,2.9s5.1-1,7.1-2.9l20.4-20.4C-480.9,599.7-480.9,593.4-484.8,589.5L-484.8,589.5z"/>
		<path id="XMLID_1392_" class="st0" d="M-286.2,611.1l12.9,12.9c2,2,4.5,2.9,7.1,2.9s5.1-1,7.1-2.9l20.4-20.4
			c3.9-3.9,3.9-10.2,0-14.1c-3.9-3.9-10.2-3.9-14.1,0l-13.3,13.3l-5.8-5.8c-3.9-3.9-10.2-3.9-14.1,0
			C-290.1,600.9-290.1,607.2-286.2,611.1L-286.2,611.1z"/>
		<path id="XMLID_1394_" class="st0" d="M-655.2,731.6l12.9,12.9c2,2,4.5,2.9,7.1,2.9s5.1-1,7.1-2.9l20.4-20.4
			c3.9-3.9,3.9-10.2,0-14.1c-3.9-3.9-10.2-3.9-14.1,0l-13.3,13.3l-5.8-5.8c-3.9-3.9-10.2-3.9-14.1,0
			C-659.1,721.4-659.1,727.7-655.2,731.6z"/>
		<path id="XMLID_1396_" class="st0" d="M-396.3,744.5c2,2,4.5,2.9,7.1,2.9s5.1-1,7.1-2.9l20.4-20.4c3.9-3.9,3.9-10.2,0-14.1
			c-3.9-3.9-10.2-3.9-14.1,0l-13.3,13.3l-5.8-5.8c-3.9-3.9-10.2-3.9-14.1,0c-3.9,3.9-3.9,10.2,0,14.1L-396.3,744.5z"/>
	</g>
</g>
</svg>
